PathFileType	4	(X/Y/Z)	C:/Users/opensim2020/Desktop/walking_exp_matlab/subject01_walking12_straight_02.trc																																																																																																																																		
DataRate	CameraRate	NumFrames	NumMarkers	Units	OrigDataRate	OrigDataStartFrame	OrigNumFrames																																																																																																																														
100	100	6	44	mm	100	1338	122																																																																																																																														
Frame#	Time	LFHD			RFHD			LBHD			RBHD			C7			T10			CLAV			STRN			RBAK			LSHO			LUPA			LELB			LFRM			LWRA			LWRB			LFIN			RSHO			RUPA			RELB			RFRM			RWRA			RWRB			RFIN			LASI			RASI			LPSI			RPSI			LTHI			LKNE			LTIB			LANK			LHEE			LTOE			RTHI			RKNE			RTIB			RANK			RHEE			RTOE			*39			*40			*41			*42			*43		
		X1	Y1	Z1	X2	Y2	Z2	X3	Y3	Z3	X4	Y4	Z4	X5	Y5	Z5	X6	Y6	Z6	X7	Y7	Z7	X8	Y8	Z8	X9	Y9	Z9	X10	Y10	Z10	X11	Y11	Z11	X12	Y12	Z12	X13	Y13	Z13	X14	Y14	Z14	X15	Y15	Z15	X16	Y16	Z16	X17	Y17	Z17	X18	Y18	Z18	X19	Y19	Z19	X20	Y20	Z20	X21	Y21	Z21	X22	Y22	Z22	X23	Y23	Z23	X24	Y24	Z24	X25	Y25	Z25	X26	Y26	Z26	X27	Y27	Z27	X28	Y28	Z28	X29	Y29	Z29	X30	Y30	Z30	X31	Y31	Z31	X32	Y32	Z32	X33	Y33	Z33	X34	Y34	Z34	X35	Y35	Z35	X36	Y36	Z36	X37	Y37	Z37	X38	Y38	Z38	X39	Y39	Z39	X40	Y40	Z40	X41	Y41	Z41	X42	Y42	Z42	X43	Y43	Z43	X44	Y44	Z44
																																																																																																																																					
92	0.91	142.18217	1652.5957	-1521.60144	159.82104	1656.71716	-1409.43127	24.04067	1614.62805	-1509.88342	39.51601	1618.20337	-1389.97473	-21.37745	1418.58337	-1461.48193	-54.8171	1123.31177	-1451.71582	121.24887	1349.32446	-1469.16553	166.46951	1196.60986	-1473.99951	-71.09086	1224.55615	-1375.63904	51.10409	1377.21301	-1628.05811	-10.78358	1195.90967	-1702.07666	-44.05079	1050.1355	-1688.50305	-33.81897	936.30237	-1707.9574	14.67523	804.83569	-1683.36853	-41.5462	813.85699	-1706.50391	-19.21227	729.30981	-1704.44946	67.1502	1380.89758	-1313.96509	30.93656	1184.17395	-1199.50403	48.88202	1057.64648	-1186.70715	134.96425	966.48572	-1171.22144	259.6373	911.72009	-1213.19421	229.7244	888.74432	-1169.2218	302.72052	847.60809	-1180.32166	133.84	921.12811	-1555.50525	116.9164	918.53882	-1337.79333	-56.05552	929.28668	-1521.78198	-65.56032	938.96014	-1379.15881	182.74715	610.24524	-1630.2981	219.57388	482.90915	-1612.64294	235.39104	297.73831	-1630.29675	301.47778	80.3542	-1588.00415	274.7601	34.94736	-1530.93347	448.69458	96.49039	-1593.91931	-10.22101	597.44409	-1294.33142	-44.49876	439.77579	-1322.57837	-154.68446	300.59253	-1321.40662	-252.94614	117.56638	-1371.81616	-312.38593	102.22254	-1420.77673	-136.66531	34.62892	-1379.78577	148.93416	1690.85706	-1431.26807	-1972.95154	1023.77148	3101.96948	-2012.50024	1022.01794	3140.67749	NaN	NaN	NaN	NaN	NaN	NaN
93	0.92	154.7	1651.35046	-1523.60706	172.08908	1655.53308	-1411.35339	36.51615	1613.44714	-1512.25818	51.75647	1617.04236	-1392.22034	-8.96464	1417.16272	-1463.70911	-41.61091	1121.77454	-1453.34827	133.82396	1348.14233	-1471.05676	179.47809	1195.58008	-1475.49146	-58.39534	1223.12549	-1377.65967	63.76616	1375.61731	-1630.09717	1.91321	1194.24805	-1703.96533	-31.64956	1048.62231	-1690.00159	-21.90172	934.77228	-1709.28552	26.04791	803.10498	-1684.21521	-30.03613	812.2901	-1707.62366	-8.15177	727.52667	-1705.05188	79.61897	1380.24951	-1315.74475	42.83763	1183.40393	-1201.38818	60.7764	1056.92358	-1188.17297	147.46364	966.30524	-1172.81763	272.62695	912.65546	-1215.07678	242.90639	889.4035	-1171.1001	316.26492	848.91205	-1182.27161	147.94859	920.02448	-1556.33643	130.10248	917.5116	-1338.53467	-42.05915	927.94733	-1523.74585	-52.2262	937.6004	-1381.29309	198.48517	609.55469	-1629.82629	234.19867	481.90384	-1612.02551	248.37376	295.95554	-1629.5282	313.22659	78.39136	-1586.59961	285.86655	33.10539	-1529.7605	460.67484	93.65392	-1590.93555	1.80384	596.91455	-1294.64172	-33.52163	439.03925	-1322.36743	-147.41055	302.2359	-1321.28821	-249.44304	121.38342	-1370.79797	-309.27893	107.96336	-1419.80518	-136.2061	34.68214	-1379.573	161.27148	1689.70801	-1433.31006	-1973.14368	1023.49255	3101.9834	-2012.50623	1022.12189	3140.80371	NaN	NaN	NaN	NaN	NaN	NaN
94	0.93	167.27554	1650.09583	-1525.58997	184.34485	1654.35132	-1413.35474	49.03234	1612.23889	-1514.60107	63.89792	1615.90125	-1394.56421	3.56055	1415.67249	-1466.00903	-28.21357	1120.22534	-1455.13	146.65158	1347.12964	-1473.13757	192.63811	1194.6189	-1477.11108	-45.63541	1221.63379	-1379.82556	76.53732	1374.05115	-1632.28125	14.74265	1192.51294	-1705.84827	-19.03623	1047.02441	-1691.64685	-9.37231	933.10889	-1710.67651	38.04577	801.38153	-1685.20569	-17.91337	810.64459	-1708.67847	3.59849	725.8338	-1705.95898	92.01242	1378.81482	-1317.9375	54.68591	1182.62756	-1203.44885	72.55559	1056.20227	-1189.72314	159.839	965.9585	-1174.50916	285.17697	913.07031	-1216.90979	255.76048	889.53119	-1172.90662	329.30167	849.66925	-1184.20764	162.27263	919.0152	-1557.50244	143.94115	916.5282	-1339.3551	-28.00701	926.57941	-1525.63806	-38.53547	936.21216	-1383.34265	214.73843	608.81641	-1629.23303	249.08411	480.85217	-1611.07605	260.44742	293.87894	-1628.4469	322.5824	75.80753	-1584.95654	294.03549	31.10951	-1528.59302	470.30191	89.24834	-1587.58923	14.29574	596.2334	-1295.08264	-22.10395	438.23102	-1322.03027	-139.12616	304.17868	-1320.66528	-245.58131	125.54322	-1369.81543	-305.54254	114.02811	-1418.76147	-135.66534	34.70472	-1379.36975	173.46318	1688.37549	-1435.38599	-1973.10254	1023.54199	3101.93555	-2012.53625	1022.04169	3140.55469	NaN	NaN	NaN	NaN	NaN	NaN
95	0.94	179.83405	1648.79712	-1527.7124	196.51944	1653.07849	-1415.38196	61.56459	1610.95886	-1517.06348	76.0379	1614.66577	-1396.96021	16.15206	1414.06067	-1468.40417	-14.59842	1118.56641	-1456.8938	159.47905	1346.02783	-1475.24902	206.03548	1193.68262	-1478.84534	-32.70868	1220.02551	-1381.99329	89.46886	1372.4458	-1634.4917	27.7562	1190.80139	-1707.86365	-6.16286	1045.3761	-1693.45837	3.35958	931.51617	-1712.32373	50.56462	799.68298	-1686.42664	-5.26106	809.03778	-1710.25903	16.18175	724.11249	-1707.04529	104.54744	1377.61829	-1320.04431	66.37035	1181.82739	-1205.53235	84.27329	1055.47375	-1191.3158	171.84344	965.51532	-1176.18616	297.29645	913.1391	-1218.79224	268.06836	889.45587	-1174.71008	341.88434	849.99103	-1186.224	176.81976	918.09943	-1558.90125	157.83035	915.29346	-1340.62036	-13.63371	925.14392	-1527.39014	-24.52875	934.82367	-1385.23633	231.13052	608.04688	-1628.22717	263.85794	479.49072	-1609.75916	271.78528	291.36511	-1627.16895	330.09918	72.69216	-1583.0719	299.0925	30.44542	-1527.88367	477.6976	83.50074	-1584.00061	27.33764	595.34766	-1295.62012	-9.56681	437.12311	-1321.7229	-130.05635	306.5596	-1320.49817	-241.46304	130.17126	-1368.81445	-301.17294	120.5949	-1417.79224	-135.11163	34.80647	-1379.22852	185.81526	1687.21179	-1437.43347	-1973.22009	1023.52747	3101.93994	-2012.5387	1022.10114	3140.73926	NaN	NaN	NaN	NaN	NaN	NaN
96	0.95	192.33548	1647.4762	-1529.78503	208.58392	1651.7428	-1417.38257	74.01126	1609.61121	-1519.58008	88.13428	1613.32019	-1399.36816	28.69055	1412.44836	-1471.0116	-0.80449	1116.77368	-1458.86353	172.37506	1344.80994	-1477.42749	219.50737	1192.64404	-1480.495	-19.75837	1218.30005	-1384.28479	102.44669	1370.84399	-1636.8584	40.89757	1189.1189	-1710.01538	7.02306	1043.75537	-1695.51526	16.54939	929.81482	-1714.08093	63.64135	798.03815	-1687.8009	7.86089	807.33594	-1711.65991	29.29255	722.43555	-1708.48401	117.00428	1376.4314	-1322.21106	78.1038	1180.92322	-1207.67432	95.80485	1054.63342	-1193.04602	183.68626	964.85425	-1177.94275	309.21521	912.85199	-1220.70349	280.11469	889.17267	-1176.55103	354.03394	849.77325	-1188.18103	191.54202	917.18097	-1560.53577	171.99789	913.99469	-1342.07971	0.90182	923.62286	-1529.1062	-10.21404	933.38538	-1387.0155	247.4053	607.04645	-1626.62195	278.29852	477.76828	-1608.48938	282.72745	288.58173	-1625.75671	336.09894	69.63728	-1581.02319	302.29041	29.7992	-1526.85486	484.27353	75.81524	-1579.45789	41.02143	594.29907	-1296.32947	3.60688	435.68903	-1321.29126	-120.56519	308.63821	-1320.31482	-236.48376	134.74312	-1367.71594	-295.91837	127.62328	-1417.09473	-134.47536	34.6795	-1378.95105	197.81032	1685.79053	-1439.56213	-1973.17114	1023.41925	3101.97656	-2012.51416	1022.06757	3140.72705	NaN	NaN	NaN	NaN	NaN	NaN
97	0.96	204.79665	1646.26135	-1531.91589	220.58524	1650.54871	-1419.32336	86.47528	1608.255	-1522.14185	100.13479	1611.93237	-1401.88489	41.12598	1410.70874	-1473.61035	13.21792	1114.84216	-1460.96057	185.26541	1343.526	-1479.64319	233.19388	1191.79321	-1482.26794	-6.7381	1216.55884	-1386.72986	115.55562	1369.22742	-1639.31897	54.20404	1187.34497	-1712.18921	20.4611	1041.98218	-1697.62805	30.14523	928.03003	-1715.95898	77.2962	796.39764	-1689.35193	21.52243	805.54681	-1713.28979	43.06786	720.80548	-1710.15149	129.39891	1375.13269	-1324.5238	89.8504	1180.00049	-1209.91382	107.23339	1053.70825	-1194.91138	195.19933	964.0827	-1179.79065	320.74823	912.1037	-1222.53296	291.8317	888.4364	-1178.36475	365.67361	849.06061	-1190.05823	205.93428	916.30695	-1562.02954	186.453	912.65472	-1343.6449	15.10199	922.13287	-1531.07935	3.94292	932.12732	-1388.78516	263.26123	605.73431	-1624.82263	292.23178	475.61978	-1608.13623	293.56647	285.8259	-1623.31934	341.17126	68.3717	-1578.9325	304.03625	31.80324	-1525.77979	489.95389	65.08851	-1576.12781	55.96984	592.87823	-1296.86035	17.76895	434.15771	-1320.90552	-110.71799	310.70224	-1320.04639	-230.84581	140.02454	-1366.54492	-289.55859	135.11795	-1416.56921	-133.71114	34.73206	-1378.48218	210.01208	1684.64185	-1441.56018	-1973.06506	1023.50787	3101.91431	-2012.52954	1022.008	3140.80908	NaN	NaN	NaN	NaN	NaN	NaN
